PathFileType	4	(X/Y/Z)	C:/Users/beibeiliu/ov580/test_trc\sequence.28_training_dense_right.trc
DataRate	CameraRate	NumFrames	NumMarkers	Units	OrigDataRate	OrigDataStartFrame	OrigNumFrames
120	120	8	19	mm	120	167	333
Frame#	Time	ThumbCMC			ThumbMCP			ThumbIP			ThumbTip			IndexMCP			IndexPIP			IndexTip			MiddleMCP			MiddlePIP			MiddleTip			RingMCP			RingPIP			RingTip			PinkyMCP			PinkyPIP			PinkyTip			BackHand1			BackHand2			BackHand3	
		X0	Y0	Z0	X1	Y1	Z1	X2	Y2	Z2	X3	Y3	Z3	X4	Y4	Z4	X5	Y5	Z5	X6	Y6	Z6	X7	Y7	Z7	X8	Y8	Z8	X9	Y9	Z9	X10	Y10	Z10	X11	Y11	Z11	X12	Y12	Z12	X13	Y13	Z13	X14	Y14	Z14	X15	Y15	Z15	X16	Y16	Z16	X17	Y17	Z17	X18	Y18	Z18	
166	1.38333	231.988	22.695	42.8917	217.856	29.8253	13.8732	209.759	29.1506	-6.69822	198.133	16.0667	-21.5888	240.042	0.42578	-11.903	220.37	19.5015	-19.2625	219.87	27.0933	8.266	226.023	-8.62844	-16.1545	207.733	12.9061	-16.3261	218.799	10.7195	14.7114	207.705	-16.4101	-7.45526	192.869	6.74345	-4.72513	200.301	10.6403	21.1665	199.533	-24.4195	4.59745	186.044	-3.55657	-2.16937	195.464	8.9558	17.6913	224.526	-26.6288	38.4665	219.815	-22.4685	64.0175	243.284	-7.90881	50.7654	
167	1.39167	235.63	27.4045	43.8233	220.93	34.9878	16.4939	212.26	33.4689	-10.5662	198.532	26.9321	-22.1515	241.275	5.00935	-16.0426	222.086	22.3418	-24.7791	218.921	28.1725	7.78532	223.669	-5.29159	-16.8405	204.122	15.0996	-19.2895	212.464	15.012	15.0192	203.222	-12.0894	-7.28921	192.696	14.5179	-4.05853	199.174	14.7548	22.2076	191.782	-19.8733	3.84009	185.647	2.70706	-0.892546	193.684	12.9331	21.5651	221.367	-25.4074	36.5761	220.329	-22.1542	65.0893	242.932	-9.50298	47.7697	
168	1.4	237.624	29.9563	45.6847	222.048	36.2684	17.6469	214.441	38.2107	-2.96363	203.418	35.8761	-21.2618	239.085	6.00448	-14.1632	216.94	23.8155	-23.1973	217.058	31.8588	4.02932	220.47	-3.491	-15.5062	201.115	18.9624	-20.073	205.972	21.1845	12.7082	198.332	-9.33986	-6.76789	188.235	18.206	0.0190797	202.545	17.1168	24.6766	185.816	-14.2064	2.43292	184.982	9.08746	3.9199	193.853	17.0889	25.9581	220.827	-25.2695	37.7437	223.518	-20.6546	61.143	241.241	-7.44127	48.3618	
169	1.40833	238.957	28.4849	46.1481	227.195	41.6728	19.2559	220.357	45.1773	-0.746273	210.438	49.925	-23.0563	231.805	6.00904	-18.7298	216.976	24.7142	-25.4775	215.844	35.4616	1.85128	217.659	-1.12175	-15.9734	198.288	24.386	-16.207	206.1	25.2197	15.1206	198.545	-5.89019	-5.76785	188.398	19.9653	1.17422	202.716	17.4064	25.9793	184.581	-10.9957	3.99825	180.192	9.63866	6.88154	198.753	15.2846	29.918	220.117	-25.8087	35.3713	224.411	-16.5592	64.8123	241.47	-5.5095	47.1557	
170	1.41667	238.767	26.5554	43.3311	230.941	44.2217	20.5757	227.001	49.453	-3.70829	219.075	51.8876	-18.163	231.917	7.85185	-15.7956	212.804	25.6682	-24.3541	213.889	34.0342	8.61108	211.66	-0.468257	-15.1985	195.708	26.0827	-12.4642	205.397	23.2965	17.8697	198.276	-3.39868	-5.58058	186.227	18.2211	-0.241415	199.224	17.3952	28.2024	185.511	-10.3887	6.30546	182.077	13.766	12.0691	196.903	12.644	35.2487	218.387	-23.4042	34.4513	224.774	-18.376	62.777	240.155	-5.77933	47.1043	
171	1.425	240.628	28.4169	43.2707	232.42	39.7627	22.9553	230.564	45.3384	-1.63402	228.566	53.3026	-18.2961	227.85	9.90147	-17.6083	207.231	28.8205	-20.9349	211.02	35.021	9.31837	207.121	3.21728	-16.3838	189.649	24.8202	-8.62706	203.379	23.524	21.1314	192.442	-5.12538	-2.56217	185.58	21.4335	4.92459	198.283	16.1509	31.3715	181.696	-8.41904	6.36421	177.729	13.0055	12.6903	197.727	12.514	35.8301	218.804	-21.8864	36.1493	221.897	-19.3881	61.1452	243.203	-4.36412	45.8237	
172	1.43333	239.058	25.3584	43.7502	235.318	38.4402	21.655	237.881	46.5998	-2.13504	237.344	50.9485	-20.2974	226.31	11.6051	-16.814	206.122	33.4137	-18.6174	210.133	35.6898	12.7471	206.653	5.95989	-15.3912	190.633	30.1125	-6.68508	200.957	23.9887	21.2786	189.799	-0.621723	-3.59668	180.436	20.6036	5.61381	198.663	18.9544	29.0437	177.958	-11.3764	11.262	175.174	14.9949	17.9236	197.026	11.5809	34.0783	216.095	-22.4663	34.47	221.991	-18.5246	60.3354	238.631	-7.62453	45.1577	
173	1.44167	238.376	23.3812	45.496	236.832	34.7766	21.8113	242.4	41.8489	-1.8975	244.053	47.9238	-20.5036	220.98	14.6744	-19.513	200.987	32.7328	-17.4913	205.395	33.1519	13.648	200.446	5.50684	-14.3443	187.049	30.8564	-6.17756	201.798	24.3108	22.773	187.636	-0.459329	-2.12616	181.683	23.5039	7.28869	197.666	17.2025	31.4005	175.879	-9.31357	11.5607	175.084	15.7887	15.3232	195.88	14.9083	34.9184	213.774	-20.8686	35.8946	220.767	-20.6684	62.1182	240.265	-4.98033	41.6292	
